<svg width="36" height="35" viewBox="0 0 36 35" fill="none" xmlns="http://www.w3.org/2000/svg">
<path d="M25.6999 27.0251C25.9562 27.2626 26.0805 27.587 26.0805 28.0001C26.0805 28.4251 25.9312 28.8063 25.6368 29.1376C25.3374 29.4626 24.8937 29.6251 24.3062 29.6251C23.588 29.6251 23.0874 29.4257 22.8068 28.9501C22.6562 28.7001 22.5749 28.6251 22.5562 28.0001H23.5437C23.5437 28.0001 23.5749 28.3376 23.6437 28.4751C23.7618 28.7195 23.9874 28.8257 24.3062 28.8257C24.5005 28.8257 24.6749 28.7507 24.8187 28.6132C24.9687 28.4813 25.0374 28.282 25.0374 28.0313C25.0374 27.6938 24.763 27.4695 24.4937 27.3563C24.3374 27.2938 24.2499 27.2563 23.6249 27.2563V26.5438C24.2499 26.5376 24.3124 26.5063 24.4437 26.4438C24.6687 26.3507 24.8499 26.1501 24.8499 25.8501C24.8499 25.6563 24.8249 25.4945 24.7124 25.3751C24.5993 25.2501 24.4562 25.1876 24.2499 25.1876C24.0124 25.1876 23.8499 25.3188 23.7374 25.4688C23.6249 25.6188 23.5812 25.5001 23.5874 26.1251H22.6499C22.6624 25.5001 22.7062 25.5751 22.7812 25.3501C22.8624 25.1507 22.9937 24.9376 23.168 24.7688C23.2999 24.6501 23.4562 24.5438 23.6368 24.4813C23.8118 24.4182 24.0374 24.3813 24.2999 24.3813C24.7874 24.3813 25.1812 24.5063 25.4749 24.7563C25.7749 25.0063 25.9249 25.3438 25.9249 25.7688C25.9249 26.0688 25.8374 26.3188 25.6562 26.5251C25.5437 26.6563 25.4249 26.7445 25.3062 26.7945C25.3999 26.7938 25.5312 26.8688 25.6999 27.0251Z" fill="#FFAE00"/>
<path d="M18.6375 13.9062C22.225 13.9062 22.6688 17.2187 22.6506 20.0375C22.6375 23.4437 22.1938 26.7375 18.6063 26.7375C15.0125 26.7375 14.5875 23.4431 14.5569 20.0369C14.5563 17.2187 14.9813 13.9062 18.6375 13.9062ZM21.2438 20.0688C21.2563 17.3313 20.7369 15.1375 18.5688 15.1375C16.4744 15.1375 15.95 17.3313 15.9688 20.0688C15.9813 23.625 16.3438 25.5125 18.6063 25.5125C20.8688 25.5125 21.225 23.625 21.2438 20.0688Z" fill="#FFAE00"/>
<path d="M15.8376 9.34375C14.3938 10.075 13.2626 11.35 12.6995 12.9056" stroke="#FFAE00" stroke-width="2" stroke-miterlimit="10" stroke-linecap="round" stroke-linejoin="round"/>
<path d="M9.925 16.5438C9.85 16.0688 9.8125 15.5875 9.8125 15.0938C9.8125 10.1438 13.7563 6.125 18.625 6.125C23.4938 6.125 27.4438 10.1438 27.4438 15.0938C27.4438 15.5875 27.4 16.075 27.325 16.5438C27.125 17.7875 26.675 18.95 26.025 19.9688" stroke="#FFAE00" stroke-width="2" stroke-miterlimit="10" stroke-linecap="round" stroke-linejoin="round"/>
<path d="M27.3249 16.5437C30.3124 17.9812 32.3749 21.0687 32.3749 24.6562C32.3749 29.6062 28.4312 33.625 23.5624 33.625C21.7305 33.625 20.0312 33.0562 18.6249 32.0875C17.4687 31.2931 16.5124 30.225 15.8374 28.9812" stroke="#FFAE00" stroke-width="2" stroke-miterlimit="10" stroke-linecap="round" stroke-linejoin="round"/>
<path d="M7.38745 24.6562C7.38745 27 8.63745 29.0562 10.4881 30.175" stroke="#FFAE00" stroke-width="2" stroke-miterlimit="10" stroke-linecap="round" stroke-linejoin="round"/>
<path d="M9.8 19.6125C9.05687 20.2125 8.45 20.975 8.03125 21.8375" stroke="#FFAE00" stroke-width="2" stroke-miterlimit="10" stroke-linecap="round" stroke-linejoin="round"/>
<path d="M18.625 32.0876C17.2188 33.0563 15.5188 33.6251 13.6938 33.6251C8.825 33.6251 4.875 29.6063 4.875 24.6563C4.875 21.0688 6.9375 17.9807 9.925 16.5438C10.5812 16.2251 11.275 15.9938 12.0062 15.8501" stroke="#FFAE00" stroke-width="2" stroke-miterlimit="10" stroke-linecap="round" stroke-linejoin="round"/>
<path d="M31.1125 6.5875C31.4062 6.69375 31.7313 6.75 32.0625 6.75C33.6188 6.75 34.875 5.4875 34.875 3.9375C34.875 2.38125 33.6188 1.125 32.0625 1.125C30.5062 1.125 29.25 2.38125 29.25 3.9375C29.25 4.275 29.3063 4.59375 29.4188 4.8875C29.7 5.675 30.325 6.3 31.1125 6.5875Z" stroke="#FFAE00" stroke-width="2" stroke-miterlimit="10" stroke-linecap="round" stroke-linejoin="round"/>
<path d="M31.1125 6.5875C31.125 6.64375 31.125 6.69375 31.125 6.75C31.125 7.7875 30.2875 8.625 29.25 8.625C28.2125 8.625 27.375 7.7875 27.375 6.75C27.375 5.7125 28.2125 4.875 29.25 4.875C29.3063 4.875 29.3625 4.875 29.4188 4.8875" stroke="#FFAE00" stroke-width="2" stroke-miterlimit="10" stroke-linecap="round" stroke-linejoin="round"/>
<path d="M3.625 15.5C5.00571 15.5 6.125 14.3807 6.125 13C6.125 11.6193 5.00571 10.5 3.625 10.5C2.24429 10.5 1.125 11.6193 1.125 13C1.125 14.3807 2.24429 15.5 3.625 15.5Z" stroke="#FFAE00" stroke-width="2" stroke-miterlimit="10" stroke-linecap="round" stroke-linejoin="round"/>
</svg>
